<svg width="19" height="15" viewBox="0 0 19 15" fill="none" xmlns="http://www.w3.org/2000/svg">
<path opacity="0.8" d="M9.375 11.7188C9.62891 11.7188 9.88281 11.6895 10.1367 11.6309L11.6602 12.832C10.8594 13.0273 10.0977 13.125 9.375 13.125C7.59766 13.125 5.9668 12.6562 4.48242 11.7188C2.99805 10.7617 1.8457 9.50195 1.02539 7.93945C0.966797 7.80273 0.9375 7.65625 0.9375 7.5C0.9375 7.34375 0.966797 7.19727 1.02539 7.06055C1.29883 6.55273 1.66016 6.01562 2.10938 5.44922L5.18555 7.82227C5.24414 8.54492 5.45898 9.20898 5.83008 9.81445C6.2207 10.4004 6.72852 10.8691 7.35352 11.2207C7.97852 11.5527 8.65234 11.7188 9.375 11.7188ZM18.5742 13.418C18.6914 13.5156 18.75 13.6426 18.75 13.7988C18.75 13.8965 18.7207 13.9941 18.6621 14.0918L18.0762 14.8242C17.9785 14.9414 17.8516 15 17.6953 15C17.5977 15 17.5098 14.9707 17.4316 14.9121L0.175781 1.58203C0.0585938 1.48438 0 1.35742 0 1.20117C0 1.10352 0.0292969 1.00586 0.0878906 0.908203L0.673828 0.175781C0.771484 0.0585938 0.898438 0 1.05469 0C1.15234 0 1.24023 0.0292969 1.31836 0.0878906L5.06836 2.98828C5.41992 2.77344 5.84961 2.58789 6.35742 2.43164C6.88477 2.25586 7.41211 2.11914 7.93945 2.02148C8.48633 1.92383 8.96484 1.875 9.375 1.875C11.1523 1.875 12.7832 2.35352 14.2676 3.31055C15.752 4.24805 16.9043 5.49805 17.7246 7.06055C17.7832 7.19727 17.8125 7.34375 17.8125 7.5C17.8125 7.65625 17.7832 7.80273 17.7246 7.93945C17.4707 8.4082 17.1094 8.93555 16.6406 9.52148C16.1719 10.1074 15.7324 10.5762 15.3223 10.9277L18.5742 13.418ZM13.1836 9.25781C13.457 8.69141 13.5938 8.10547 13.5938 7.5C13.5938 6.32812 13.1836 5.33203 12.3633 4.51172C11.543 3.69141 10.5469 3.28125 9.375 3.28125C8.96484 3.28125 8.49609 3.37891 7.96875 3.57422C7.44141 3.75 7.02148 3.97461 6.70898 4.24805L8.84766 5.91797C8.88672 5.82031 8.90625 5.72266 8.90625 5.625C8.90625 5.3125 8.81836 5.03906 8.64258 4.80469C8.89648 4.72656 9.15039 4.6875 9.4043 4.6875C10.166 4.6875 10.8203 4.96094 11.3672 5.50781C11.9141 6.05469 12.1875 6.70898 12.1875 7.4707C12.1875 7.4707 12.1875 7.48047 12.1875 7.5C12.1875 7.79297 12.1387 8.08594 12.041 8.37891L13.1836 9.25781Z" fill="#0C46C4"/>
</svg>
